Coordinates
version=1
nRows=14
nColumns=40
inDegrees=yes

Units are S.I. units (second, meters, Newtons, ...)
If the header above contains a line with 'inDegrees', this indicates whether rotational values are in degrees (yes) or radians (no).

endheader
time	pelvis_tilt	pelvis_list	pelvis_rotation	pelvis_tx	pelvis_ty	pelvis_tz	hip_flexion_r	hip_adduction_r	hip_rotation_r	knee_angle_r	knee_angle_r_beta	ankle_angle_r	subtalar_angle_r	mtp_angle_r	hip_flexion_l	hip_adduction_l	hip_rotation_l	knee_angle_l	knee_angle_l_beta	ankle_angle_l	subtalar_angle_l	mtp_angle_l	lumbar_extension	lumbar_bending	lumbar_rotation	arm_flex_r	arm_add_r	arm_rot_r	elbow_flex_r	pro_sup_r	wrist_flex_r	wrist_dev_r	arm_flex_l	arm_add_l	arm_rot_l	elbow_flex_l	pro_sup_l	wrist_flex_l	wrist_dev_l
      0.51000000	    -10.62154247	      2.46992117	      2.17404582	     -0.57482989	      0.91892653	      0.25663295	     34.79907502	     -0.20253604	      1.38306908	      3.09635941	      0.05404167	     -2.76897292	      0.00000000	      0.00000000	     -0.68957596	      6.24122862	      3.74573505	      9.45651952	      0.16504740	     15.23855541	      0.00000000	      0.00000000	     -0.98320787	     -6.94009697	      4.38759260	    -15.39369706	     -4.10131280	    -14.33649522	     46.95699796	     89.30942251	      8.83675862	     20.46345034	     18.32418696	     -6.82881098	      7.16399133	     50.59720505	     89.49685799	    -18.71184804	      2.83542883
      0.52000000	    -10.40684025	      2.42951132	      2.33658407	     -0.56134092	      0.91714667	      0.25616067	     34.95934785	     -0.07065570	      0.97473697	      3.83209998	      0.06688276	     -2.32077031	      0.00000000	      0.00000000	     -1.45477543	      6.15115486	      3.58058924	     10.24610228	      0.17882822	     15.63666225	      0.00000000	      0.00000000	     -1.22058457	     -6.83721767	      4.32290214	    -15.39517253	     -4.18386896	    -14.37259565	     46.93240527	     89.30321543	      8.91274913	     20.66378266	     18.89780868	     -6.73289503	      7.33537733	     51.03828476	     89.47803240	    -18.70074174	      2.60028488
      0.53000000	    -10.15378587	      2.18438980	      2.41509931	     -0.54754608	      0.91566488	      0.25578860	     35.10237635	      0.27695874	      0.45954323	      5.06117692	      0.08833420	     -1.81157301	      0.00000000	      0.00000000	     -2.26023140	      5.82894635	      3.49953792	     11.03722819	      0.19263597	     15.72075186	      0.00000000	      0.00000000	     -1.48083884	     -6.48836038	      4.32289798	    -15.37437964	     -4.29809322	    -14.44011615	     46.90024239	     89.31025684	      9.04710663	     20.95045084	     19.30220005	     -6.58372830	      7.35824726	     51.48675658	     89.48120954	    -18.75686867	      2.27470694
      0.54000000	     -9.96149798	      1.93215270	      2.36364977	     -0.53365832	      0.91439156	      0.25560567	     35.34167774	      0.68340980	      0.23065487	      6.70981716	      0.11710840	     -1.71634841	      0.00000000	      0.00000000	     -2.94278044	      5.49418720	      3.45942327	     11.94595931	      0.20849632	     15.40379570	      0.00000000	      0.00000000	     -1.62244616	     -6.12005057	      4.36946190	    -15.23558543	     -4.44388088	    -14.41742629	     46.69045444	     89.31872275	      9.09581327	     21.06041670	     19.56089985	     -6.47434382	      7.32214838	     51.84147266	     89.48301315	    -18.78487710	      2.10793181
      0.55000000	     -9.68502142	      1.57344891	      2.35366034	     -0.51930671	      0.91332851	      0.25524196	     35.53536090	      1.12188714	     -0.50933740	      8.85946254	      0.15462679	     -1.06291472	      0.00000000	      0.00000000	     -3.58656867	      5.01947107	      2.96498304	     13.19980928	      0.23038013	     15.16771477	      0.00000000	      0.00000000	     -1.88254181	     -5.59212772	      4.35275808	    -15.20710529	     -4.63749623	    -14.36042586	     46.76955663	     89.31156063	      9.21381824	     21.22792259	     19.59862739	     -6.31204961	      7.04212725	     52.31809237	     89.47931020	    -18.90256722	      1.78206521
      0.56000000	     -9.42867772	      1.15519821	      2.30163190	     -0.50482235	      0.91254479	      0.25495437	     35.69187356	      1.60943069	     -0.91774960	     11.12423252	      0.19415448	     -0.83987400	      0.00000000	      0.00000000	     -4.10870961	      4.46730916	      2.61221064	     14.64517101	      0.25560645	     14.52543057	      0.00000000	      0.00000000	     -2.06966926	     -4.99131710	      4.33959091	    -15.09630902	     -4.82359056	    -14.35521311	     46.74210429	     89.31157602	      9.30689333	     21.39233144	     19.50249659	     -6.17065170	      6.74528425	     52.68656218	     89.48007306	    -19.03196935	      1.49738514
      0.57000000	     -9.20454791	      0.69116596	      2.24038665	     -0.49008559	      0.91199876	      0.25476114	     35.79936154	      2.12702602	     -1.19748226	     13.42452605	      0.23430218	     -0.74325632	      0.00000000	      0.00000000	     -4.46783948	      3.83756625	      2.13794053	     16.37313017	      0.28576503	     13.59093272	      0.00000000	      0.00000000	     -2.20096294	     -4.34027783	      4.31519187	    -14.98488992	     -4.98196265	    -14.38279526	     46.73270321	     89.31464176	      9.39158030	     21.56078465	     19.24687200	     -6.04304680	      6.38446809	     53.00991479	     89.48232290	    -19.19727836	      1.21037808
      0.58000000	     -8.98324632	      0.23592490	      2.15364798	     -0.47518715	      0.91175284	      0.25457115	     35.80901698	      2.62930816	     -1.41626657	     15.64033379	      0.27297532	     -0.79859257	      0.00000000	      0.00000000	     -4.65350361	      3.18630940	      1.52435366	     18.43058932	      0.32167447	     12.26375586	      0.00000000	      0.00000000	     -2.30904292	     -3.69085600	      4.34966099	    -14.88612557	     -5.13508856	    -14.44311562	     46.71701443	     89.31284892	      9.43766441	     21.67612867	     18.89710710	     -5.90854166	      6.03896005	     53.21642828	     89.48048352	    -19.35517950	      0.99514308
      0.59000000	     -8.77131905	     -0.24967890	      2.08059700	     -0.46015194	      0.91183255	      0.25447679	     35.69669359	      3.15100970	     -1.49352730	     17.67763100	      0.30853286	     -0.90109722	      0.00000000	      0.00000000	     -4.65549789	      2.45294689	      0.81743219	     20.77916386	      0.36266483	     10.58025143	      0.00000000	      0.00000000	     -2.40221979	     -3.02378690	      4.42191329	    -14.79223226	     -5.23991380	    -14.56044794	     46.67824048	     89.31224810	      9.44514904	     21.75488373	     18.46407122	     -5.76607345	      5.70864703	     53.31899977	     89.48213989	    -19.50528316	      0.83646244
      0.60000000	     -8.62769180	     -0.78843512	      1.94373984	     -0.44501314	      0.91211457	      0.25461416	     35.50110535	      3.74516200	     -1.61512598	     19.43186585	      0.33915004	     -0.98974830	      0.00000000	      0.00000000	     -4.38656702	      1.59421254	     -0.17074982	     23.47249838	      0.40967238	      8.50587268	      0.00000000	      0.00000000	     -2.39919681	     -2.30910336	      4.51912416	    -14.70656634	     -5.31474768	    -14.74775746	     46.74012560	     89.31203763	      9.42595689	     21.82942272	     17.87757879	     -5.65642290	      5.34024127	     53.36656143	     89.48098506	    -19.69297195	      0.67797971
      0.61000000	     -8.52443206	     -1.38371673	      1.79601654	     -0.42984769	      0.91269854	      0.25483831	     35.18806143	      4.38877469	     -1.73552746	     20.87470306	      0.36433230	     -1.03100600	      0.00000000	      0.00000000	     -3.87960551	      0.60497416	     -1.26860803	     26.42517937	      0.46120639	      6.05070180	      0.00000000	      0.00000000	     -2.35747660	     -1.55017643	      4.66976726	    -14.61954248	     -5.37318071	    -14.96220150	     46.79270152	     89.30902547	      9.37862053	     21.89984927	     17.21529825	     -5.53351007	      5.00531172	     53.29670526	     89.47974760	    -19.88863984	      0.56090717
      0.62000000	     -8.45422744	     -2.05860139	      1.63954883	     -0.41471099	      0.91358020	      0.25529423	     34.75942168	      5.11568697	     -1.86543151	     22.01019721	      0.38415041	     -0.97296695	      0.00000000	      0.00000000	     -3.15746893	     -0.54211253	     -2.36247796	     29.56223875	      0.51595840	      3.32210989	      0.00000000	      0.00000000	     -2.27872919	     -0.73431325	      4.87594157	    -14.52782657	     -5.38281140	    -15.19178255	     46.83330559	     89.30895693	      9.30358841	     21.96898548	     16.50783250	     -5.41540342	      4.70551626	     53.07955603	     89.47982895	    -20.09190606	      0.49197079
      0.63000000	     -8.36269512	     -2.71748777	      1.49293364	     -0.39975813	      0.91481065	      0.25578420	     34.15627421	      5.81116772	     -2.06279073	     22.82607192	      0.39839011	     -0.70986319	      0.00000000	      0.00000000	     -2.27725040	     -1.73521275	     -3.39823900	     32.82576672	      0.57291771	      0.42068848	      0.00000000	      0.00000000	     -2.25904778	      0.03832005	      5.13687492	    -14.42941171	     -5.38745390	    -15.40728053	     46.91174596	     89.30764247	      9.21962511	     22.00507493	     15.79391742	     -5.29604654	      4.49625527	     52.75682491	     89.47978162	    -20.25323256	      0.48707946
      0.64000000	     -8.32612976	     -3.49216001	      1.35481425	     -0.38490247	      0.91624140	      0.25644604	     33.46676680	      6.61567944	     -2.32491228	     23.32925940	      0.40717239	     -0.34959742	      0.00000000	      0.00000000	     -1.18472023	     -3.11237938	     -4.32471071	     36.13661739	      0.63070295	     -2.45611236	      0.00000000	      0.00000000	     -2.17521250	      0.89723315	      5.44603039	    -14.34619656	     -5.35422984	    -15.64201126	     47.01825548	     89.30708603	      9.11298390	     22.04863908	     15.05982417	     -5.16201194	      4.32204894	     52.26822980	     89.47998185	    -20.41328849	      0.53715952
